<svg width="20" height="12" viewBox="0 0 20 12" fill="none" xmlns="http://www.w3.org/2000/svg">
<path d="M4.46875 7.00781H1.54688L1.53125 5.39844H3.98438C4.41667 5.39844 4.77083 5.34375 5.04688 5.23438C5.32292 5.11979 5.52865 4.95573 5.66406 4.74219C5.80469 4.52344 5.875 4.25781 5.875 3.94531C5.875 3.59115 5.80729 3.30469 5.67188 3.08594C5.54167 2.86719 5.33594 2.70833 5.05469 2.60938C4.77865 2.51042 4.42188 2.46094 3.98438 2.46094H2.35938V12H0.015625V0.625H3.98438C4.64583 0.625 5.23698 0.6875 5.75781 0.8125C6.28385 0.9375 6.72917 1.1276 7.09375 1.38281C7.45833 1.63802 7.73698 1.96094 7.92969 2.35156C8.1224 2.73698 8.21875 3.19531 8.21875 3.72656C8.21875 4.19531 8.11198 4.6276 7.89844 5.02344C7.6901 5.41927 7.35938 5.74219 6.90625 5.99219C6.45833 6.24219 5.8724 6.38021 5.14844 6.40625L4.46875 7.00781ZM4.36719 12H0.90625L1.82031 10.1719H4.36719C4.77865 10.1719 5.11458 10.1068 5.375 9.97656C5.63542 9.84115 5.82812 9.65885 5.95312 9.42969C6.07812 9.20052 6.14062 8.9375 6.14062 8.64062C6.14062 8.30729 6.08333 8.01823 5.96875 7.77344C5.85938 7.52865 5.68229 7.34115 5.4375 7.21094C5.19271 7.07552 4.86979 7.00781 4.46875 7.00781H2.21094L2.22656 5.39844H5.03906L5.57812 6.03125C6.27083 6.02083 6.82812 6.14323 7.25 6.39844C7.67708 6.64844 7.98698 6.97396 8.17969 7.375C8.3776 7.77604 8.47656 8.20573 8.47656 8.66406C8.47656 9.39323 8.31771 10.0078 8 10.5078C7.68229 11.0026 7.21615 11.375 6.60156 11.625C5.99219 11.875 5.2474 12 4.36719 12ZM17.8203 5.25781V7.08594H11.8828V5.25781H17.8203ZM12.5781 0.625V12H10.2344V0.625H12.5781ZM19.4922 0.625V12H17.1562V0.625H19.4922Z" fill="#047857"/>
</svg>
